<svg width="67" height="67" xmlns="http://www.w3.org/2000/svg">
  <defs>
    <linearGradient x1="83.813477%" y1="100%" x2="16.186523%" y2="0%" id="a">
      <stop stop-color="hsl(169, 75%, 50%)" offset="0%"/>
      <stop stop-color="hsl(208, 94%, 56%)" offset="100%"/>
    </linearGradient>
  </defs>
  <path d="M35.350001 66.25c10.400007 0 16.550008-5.65 18.150009-8.000001 1.3-1.85 1.6-3.35-1.650009-6.600001-2.649992-2.650008-3.349993-2.7-4.799993-1.45-1.85 1.55-4.700007 3.5-8.850001 3.5-4 0-8.500002-1.9-8.500002-9.900002V27.299995H49.25001c.9 0 1.5-.6 1.5-1.5V17.49999c0-.899997-.6-1.5-1.5-1.5H29.700005v-14c0-.9-.6-1.5-1.5-1.5H17.100003c-.9 0-1.5.6-1.5 1.5v14H1.850001c-.9 0-1.5.600003-1.5 1.5v8.300005c0 .9.6 1.5 1.5 1.5h13.750002v18.550003C15.600003 62.5 26.950005 66.25 35.350001 66.25z" transform="translate(6)" fill="url(#a)" fill-rule="nonzero"/>
</svg>