<svg xmlns="http://www.w3.org/2000/svg" viewBox="0 0 70 70">
  <defs>
    <linearGradient x1="88%" y1="26%" x2="0%" y2="70%" id="a">
      <stop stop-color="#22e0b2" offset="0%"/>
      <stop stop-color="#5ed6ff" offset="100%"/>
    </linearGradient>
  </defs>
  <path d="M8.06000163 60.8000013c.48000008 0 .87000015-.2400001 1.08000018-.7200001L30.0800052 11.1499931c.2400001-.6000001-.03-1.0500001-.6900001-1.0500001h-4.9500008c-.4800001 0-.8700001.21-1.0800002.6900001L2.42000071 59.7800011c-.27000005.6600001.06000001 1.0200002.72000012 1.0200002h4.9200008zM59.06001 39.3499978l3.2700005-2.2200004c.8400002-.5700001.9300002-1.2600002.3300001-2.0100003l-6.000001-7.7700013 9.1500015-2.3700004c.8700001-.24 1.2300002-.8100001 1.0200002-1.7100003l-.9300002-3.6900006c-.21-.9000001-.9300001-1.2900002-1.8000003-1.0200001l-9.2400015 2.7600004.15-9.7800016c0-.8400001-.6000001-1.4400002-1.4400002-1.4400002h-3.7800006c-.8400002 0-1.4400003.6000001-1.4400003 1.4400002l.2700001 9.7800016-9.2100015-2.7600004c-.8700002-.2700001-1.5900003.12-1.8000003 1.0200001l-.9300002 3.6900006c-.21.9000002.15 1.4700003 1.0200002 1.7100003l9.1500015 2.3700004-6.030001 7.7700013c-.5700001.7500001-.4200001 1.4700002.3300001 2.0100003l3.3000005 2.2200004c.7800001.51 1.4400002.3 1.9200003-.4200001l5.3700009-7.8900013 5.4000009 7.8900013c.4800001.7200001 1.1400002.9300001 1.9200003.4200001z" fill="url(#a)" fill-rule="nonzero"/>
</svg>
